<svg xmlns="http://www.w3.org/2000/svg" width="18" height="18" fill="none"><path fill="#fff" d="M16.95 18q-3.125 0-6.175-1.363t-5.55-3.862-3.862-5.55Q-.001 4.175 0 1.05 0 .6.3.3t.75-.3H5.1a.93.93 0 0 1 .625.237A.9.9 0 0 1 6.05.8l.65 3.5a1.8 1.8 0 0 1-.025.675Q6.6 5.25 6.4 5.45L3.975 7.9q.5.926 1.187 1.787.688.863 1.513 1.663.775.775 1.625 1.438T10.1 14l2.35-2.35a1.4 1.4 0 0 1 .588-.338 1.6 1.6 0 0 1 .712-.062l3.45.7q.35.1.575.363A.88.88 0 0 1 18 12.9v4.05q0 .45-.3.75t-.75.3M3.025 6l1.65-1.65L4.25 2H2.025q.125 1.024.35 2.025T3.025 6m8.95 8.95q.975.424 1.988.675 1.013.25 2.037.325v-2.2l-2.35-.475z"/></svg>