<svg width="50" height="49" fill="none" xmlns="http://www.w3.org/2000/svg"><path d="M10.217 41.219a2 2 0 1 0 .985 3.877l-.985-3.877zm16.98 2.776L27.058 42l.139 1.995zm9.892-1.675.697 1.875-.697-1.875zm9.452-6.552-1.37-1.456 1.37 1.456zm-6.465-4.1 1.213 1.592-1.213-1.591zm-4.353 3.318 1.212 1.59-1.212-1.59zM23.9 34.458a2 2 0 0 0 0 4v-4zm21.637-3.201-.906 1.783.906-1.783zM2.54 43.157l-1.92-.561-.08.275v.286h2zm4.872-15.074v-2h-.077l-.077.006.154 1.994zm6.643 2.075.712 1.869-.712-1.869zm11.832-.825.407-1.958-.407 1.958zm4.621.96-.407 1.959.407-1.959zm1.464 4.201-1.212-1.59 1.212 1.59zm-3.79.373a2 2 0 0 0 2.425 3.181l-2.424-3.181zM4.5 36.457l1.92.562.15-.516-.127-.522-1.943.477zm6.702 8.639c.516-.131 1.363-.177 2.593-.11 1.196.065 2.575.223 4.096.405 2.953.353 6.465.806 9.444.6L27.058 42c-2.517.174-5.599-.21-8.692-.58-1.502-.18-3.008-.355-4.354-.428-1.311-.072-2.663-.06-3.795.227l.985 3.877zm16.133.894c4.294-.298 6.197-.214 10.451-1.795l-1.394-3.75c-3.614 1.344-4.91 1.248-9.334 1.555l.277 3.99zm10.451-1.795c3.833-1.425 7.73-4.716 10.126-6.97l-2.741-2.913c-2.368 2.227-5.763 5.012-8.779 6.133l1.394 3.75zm1.078-14.117-4.353 3.317 2.424 3.182 4.354-3.317-2.425-3.182zm-7.804 4.38H23.9v4h7.16v-4zm3.451-1.063c-.845.644-2.083 1.063-3.451 1.063v4c2.13 0 4.247-.64 5.875-1.881l-2.424-3.182zm11.931-3.921c-2.357-1.198-5.47-1.001-7.578.604l2.425 3.182c.81-.618 2.266-.766 3.341-.22l1.812-3.566zm1.47 7.75c1.23-1.156 1.76-2.74 1.396-4.315-.35-1.516-1.453-2.717-2.866-3.435L44.63 33.04c.592.3.751.641.78.77a.31.31 0 0 1-.006.176c-.019.059-.073.175-.233.326l2.74 2.913zM2.693 30.453l4.873-.375-.308-3.988-4.872.375.307 3.988zm4.917-.694v15.074h4V29.758h-4zm-.198 14.75H2.54v4h4.872v-4zm-4.872 0c.185 0 .559.051.92.347a1.5 1.5 0 0 1 .514.8c.036.154.023.236.026.186.003-.038.014-.117.042-.25.061-.293.147-.58.26-1.007.05-.19.106-.409.15-.627a4.14 4.14 0 0 0 .088-.8h-4c0-.075.004-.007-.104.401-.077.288-.219.78-.309 1.21-.078.371-.214 1.091-.046 1.804.096.41.323.95.841 1.375.527.433 1.129.56 1.618.56v-4zm5.07.324c0-.132.038-.244.079-.318.038-.07.072-.093.065-.088-.019.015-.133.081-.342.081v4c1.005 0 1.99-.308 2.766-.9.779-.592 1.432-1.555 1.432-2.775h-4zm-.198-14.75c.209 0 .323.067.342.082.007.005-.027-.018-.065-.088a.667.667 0 0 1-.079-.318h4c0-1.22-.653-2.183-1.431-2.776-.777-.591-1.762-.9-2.767-.9v4zM2.54 26.459c-.042 0 .042-.006.196.038.127.036.527.169.863.595.405.514.488 1.168.316 1.72a1.786 1.786 0 0 1-.619.89c-.332.254-1 .532-1.759.186a1.647 1.647 0 0 1-.997-1.429h4c0-.609-.226-1.7-1.34-2.21-.948-.433-1.843-.097-2.328.272a2.214 2.214 0 0 0-.775 1.098 2.12 2.12 0 0 0 .36 1.947c.391.498.896.696 1.19.78.319.09.63.113.893.113v-4zm8.882 6.844 3.345-1.275-1.424-3.738-3.346 1.275 1.425 3.738zm9.515-2.382h.901v-4h-.901v4zm4.543.371 4.621.96.814-3.916-4.62-.96-.815 3.916zm5.28 1.612-2.577 1.964 2.424 3.181 2.577-1.963-2.424-3.182zm-.659-.651c.687.142.832.462.838.479.003.008-.002-.008.003-.022.004-.013-.015.067-.182.194l2.424 3.182c1.515-1.155 2.128-2.96 1.532-4.67-.563-1.616-2.045-2.715-3.801-3.08l-.814 3.917zM21.84 30.92c1.233 0 2.458.125 3.642.371l.813-3.916a21.938 21.938 0 0 0-4.456-.455v4zm-7.072 1.107c1.9-.724 4.013-1.107 6.17-1.107v-4c-2.621 0-5.22.464-7.594 1.369l1.424 3.738zm21.421-15.67c0 1.094-.576 2.225-1.787 3.148-1.213.924-2.976 1.553-5.006 1.553v4c2.826 0 5.46-.87 7.43-2.372 1.971-1.502 3.363-3.721 3.363-6.328h-4zm-6.793 4.7c-2.03 0-3.793-.628-5.006-1.552-1.21-.923-1.787-2.054-1.787-3.147h-4c0 2.607 1.392 4.826 3.363 6.328 1.97 1.501 4.604 2.372 7.43 2.372v-4zm-6.793-4.7c0-1.092.576-2.223 1.787-3.146 1.213-.924 2.976-1.553 5.006-1.553v-4c-2.826 0-5.46.87-7.43 2.371-1.971 1.503-3.363 3.722-3.363 6.329h4zm6.793-4.7c2.03 0 3.793.63 5.006 1.554 1.21.923 1.787 2.054 1.787 3.147h4c0-2.607-1.392-4.826-3.363-6.329-1.97-1.5-4.604-2.371-7.43-2.371v4zm-8.793 2.7c-2.03 0-3.793-.628-5.006-1.552-1.21-.923-1.787-2.054-1.787-3.147h-4c0 2.607 1.392 4.826 3.363 6.328 1.97 1.501 4.603 2.372 7.43 2.372v-4zm-6.793-4.7c0-1.092.576-2.223 1.787-3.146 1.213-.924 2.976-1.553 5.006-1.553v-4c-2.827 0-5.46.87-7.43 2.372C11.2 4.832 9.809 7.05 9.809 9.658h4zm6.793-4.699c2.03 0 3.793.63 5.005 1.553 1.211.923 1.788 2.054 1.788 3.147h4c0-2.607-1.392-4.826-3.363-6.328-1.97-1.501-4.604-2.372-7.43-2.372v4zM4.459 43.719l1.96-6.7-3.839-1.123-1.96 6.7 3.84 1.123zm1.984-7.738-1.96-7.999-3.886.952 1.96 8 3.886-.953z" fill="#FFAC01"/></svg>