<svg width="57" height="57" fill="none" xmlns="http://www.w3.org/2000/svg"><path d="M33.628 23.09a2.5 2.5 0 1 0 4.725-1.635l-4.725 1.635zm-1.94-4.064.11-2.497a2.366 2.366 0 0 0-.11-.003v2.5zm-6.375 9.74v2.5-2.5zm6.375 9.74v2.5-2.5zm-6.375 0-.11 2.497.11.002v-2.5zm-1.941-4.065a2.5 2.5 0 1 0-4.725 1.635l4.725-1.635zM31 14.156a2.5 2.5 0 0 0-5 0h5zm-5 4.87a2.5 2.5 0 0 0 5 0h-5zm5 19.48a2.5 2.5 0 0 0-5 0h5zm-5 4.869a2.5 2.5 0 0 0 5 0h-5zm12.353-21.92a7.366 7.366 0 0 0-2.52-3.473l-3.011 3.992c.366.276.65.663.806 1.116l4.725-1.635zm-2.52-3.473a7.227 7.227 0 0 0-4.036-1.453l-.22 4.995c.445.02.879.174 1.244.45l3.012-3.992zm-4.145-1.456h-6.375v5h6.375v-5zm-6.375 0a7.238 7.238 0 0 0-5.165 2.175l3.568 3.503a2.238 2.238 0 0 1 1.596-.678v-5zm-5.165 2.175a7.416 7.416 0 0 0-2.117 5.195h5c0-.643.252-1.251.685-1.692L20.148 18.7zm-2.117 5.195c0 1.94.756 3.81 2.117 5.195l3.568-3.503a2.416 2.416 0 0 1-.685-1.692h-5zm2.117 5.195a7.238 7.238 0 0 0 5.165 2.175v-5c-.59 0-1.166-.239-1.597-.678l-3.568 3.503zm5.165 2.175h6.375v-5h-6.375v5zm6.375 0c.59 0 1.165.238 1.596.677l3.568-3.503a7.238 7.238 0 0 0-5.164-2.174v5zm1.596.677c.434.442.685 1.05.685 1.692h5c0-1.94-.756-3.809-2.117-5.194l-3.568 3.502zm.685 1.692c0 .644-.252 1.251-.685 1.692l3.568 3.503a7.416 7.416 0 0 0 2.117-5.195h-5zm-.685 1.692a2.237 2.237 0 0 1-1.596.678v5a7.238 7.238 0 0 0 5.164-2.175l-3.568-3.503zm-1.596.678h-6.375v5h6.375v-5zm-6.266.003a2.226 2.226 0 0 1-1.244-.45l-3.01 3.99a7.227 7.227 0 0 0 4.035 1.455l.22-4.995zm-1.244-.45a2.365 2.365 0 0 1-.806-1.117l-4.725 1.635a7.365 7.365 0 0 0 2.52 3.473l3.011-3.992zM26 14.155v4.87h5v-4.87h-5zm0 24.35v4.869h5v-4.87h-5zM51.5 28.5c0 12.703-10.297 23-23 23v5c15.464 0 28-12.536 28-28h-5zm-23 23c-12.703 0-23-10.297-23-23h-5c0 15.464 12.536 28 28 28v-5zm-23-23c0-12.703 10.297-23 23-23v-5C13.036.5.5 13.036.5 28.5h5zm23-23c12.703 0 23 10.297 23 23h5c0-15.464-12.536-28-28-28v5z" fill="#FFAC01"/></svg>