<svg width="51" height="52" fill="none" xmlns="http://www.w3.org/2000/svg"><path fill-rule="evenodd" clip-rule="evenodd" d="M5.5 44.775V12.013h40v32.762a.75.75 0 0 1-.75.75H6.25a.75.75 0 0 1-.75-.75zM0 6.275A6.25 6.25 0 0 1 6.25.025h38.5A6.25 6.25 0 0 1 51 6.275v38.5a6.25 6.25 0 0 1-6.25 6.25H6.25A6.25 6.25 0 0 1 0 44.775v-38.5z" fill="#FFAC01"/><path d="M23.163 18.337c-.794 0-1.438.644-1.438 1.438v5.722h-5.722c-.794 0-1.439.644-1.439 1.439v4.675c0 .795.645 1.439 1.439 1.439h5.722v5.721c0 .795.644 1.439 1.438 1.439h4.676c.794 0 1.439-.644 1.439-1.439V33.05h5.721c.795 0 1.439-.644 1.439-1.439v-4.675c0-.795-.644-1.44-1.439-1.44h-5.721v-5.72c0-.795-.644-1.44-1.439-1.44h-4.676z" fill="#FFAC01"/></svg>