<svg width="51" height="52" viewBox="0 0 51 52" fill="none" xmlns="http://www.w3.org/2000/svg">
<path fill-rule="evenodd" clip-rule="evenodd" d="M5.5006 45.6826V12.921H45.4994V45.6826C45.4994 46.0966 45.1639 46.4325 44.7499 46.4325H6.25025C5.83621 46.4325 5.5006 46.0966 5.5006 45.6826ZM0 7.18304C0 3.73113 2.79833 0.9328 6.25025 0.9328H44.7499C48.2017 0.9328 51 3.73113 51 7.18304V45.6826C51 49.1344 48.2017 51.9331 44.7499 51.9331H6.25025C2.79833 51.9331 0 49.1344 0 45.6826V7.18304Z" fill="#FFAC01"/>
<path d="M23.1634 19.2446C22.3689 19.2446 21.7248 19.8887 21.7248 20.6832V26.4048H16.003C15.2085 26.4048 14.5643 27.0489 14.5643 27.8434V32.5191C14.5643 33.3136 15.2085 33.9577 16.003 33.9577H21.7246V39.6793C21.7246 40.4739 22.3687 41.1178 23.1633 41.1178H27.8389C28.6334 41.1178 29.2775 40.4739 29.2775 39.6793L29.2777 33.9577H34.9993C35.7938 33.9577 36.4379 33.3136 36.4379 32.5191V27.8434C36.4379 27.0489 35.7938 26.4048 34.9993 26.4048H29.2777V20.6832C29.2777 19.8887 28.6336 19.2446 27.8391 19.2446H23.1634Z" fill="#FFAC01"/>
</svg>
