<svg width="52" height="47" fill="none" xmlns="http://www.w3.org/2000/svg"><path d="M38.854.183c1.477-.34 2.812-.028 4.005.935 1.193.963 1.846 2.182 1.96 3.655v3.91h1.533c1.363 0 2.5.482 3.408 1.445.91.963 1.364 2.068 1.364 3.315v28.73c0 1.36-.455 2.493-1.364 3.4-.908.907-2.045 1.36-3.408 1.36H4.772c-1.364 0-2.5-.453-3.409-1.36C.454 44.666 0 43.533 0 42.173v-28.73c0-1.247.454-2.323 1.363-3.23.91-.907 1.988-1.417 3.238-1.53l34.253-8.5zm-21.131 8.5H41.58v-3.91c0-.453-.2-.85-.597-1.19-.398-.34-.88-.453-1.448-.34l-21.813 5.44zm-12.951 3.23c-.455 0-.824.142-1.108.425-.284.283-.426.652-.426 1.105v28.73c0 .453.142.822.426 1.105.284.283.653.425 1.108.425h41.58c.455 0 .824-.142 1.108-.425.284-.283.426-.652.426-1.105v-28.73c0-.453-.142-.822-.426-1.105-.284-.283-.653-.425-1.108-.425H4.772z" fill="#FFAC01"/></svg>