<svg width="60" height="60" fill="none" xmlns="http://www.w3.org/2000/svg"><path d="M50.749 8.69a29.585 29.585 0 0 0-9.617-6.43A30.204 30.204 0 0 0 35.628.58 29.763 29.763 0 0 0 29.777 0c-1.97 0-3.92.193-5.851.58a30.205 30.205 0 0 0-5.504 1.68 29.588 29.588 0 0 0-9.617 6.43 29.59 29.59 0 0 0-6.43 9.617 30.204 30.204 0 0 0-1.68 5.503 29.763 29.763 0 0 0-.58 5.852c0 1.97.194 3.92.58 5.85a30.202 30.202 0 0 0 1.68 5.504 29.59 29.59 0 0 0 6.43 9.617 29.587 29.587 0 0 0 9.617 6.43 30.205 30.205 0 0 0 5.504 1.68 29.757 29.757 0 0 0 11.702 0 30.204 30.204 0 0 0 5.504-1.68 29.584 29.584 0 0 0 9.617-6.43 29.588 29.588 0 0 0 6.43-9.617 30.21 30.21 0 0 0 1.68-5.503 29.764 29.764 0 0 0 0-11.702 30.212 30.212 0 0 0-1.68-5.504 29.588 29.588 0 0 0-6.43-9.617zm3.939 11.355c-.309-.502-.801-.908-1.477-1.217a22.487 22.487 0 0 0-2.462-.927c-1.005-.347-1.748-1.004-2.23-1.97a28.813 28.813 0 0 1-1.362-3.244A27.652 27.652 0 0 0 45.94 9.56a6.837 6.837 0 0 0-2.027-2.55 27.6 27.6 0 0 1 6.43 5.65 26.113 26.113 0 0 1 4.345 7.386zM46.346 30.24a14.112 14.112 0 0 1 0 3.128c-.116 1.082-.792 2.337-2.028 3.766a3.892 3.892 0 0 0-.84 1.303 95.936 95.936 0 0 1-.666 1.593c-.464 1.314-1.053 2.482-1.767 3.505-.715 1.024-2.037 1.536-3.968 1.536-.078-.039-.184-.213-.32-.522-.134-.309-.26-.85-.376-1.622a50.983 50.983 0 0 1-.318-2.433 98.002 98.002 0 0 1-.261-2.78c-.116-1.507-.26-3.071-.434-4.693a35.27 35.27 0 0 0-.783-4.577c-.502-1.815-1.149-3.254-1.94-4.316-.792-1.062-1.767-1.786-2.926-2.173a7.164 7.164 0 0 0-1.564-.405 11.448 11.448 0 0 0-1.622-.116c-.425 0-.821.02-1.188.058-.367.039-.724.077-1.072.116a8.806 8.806 0 0 1-1.39.116c-.348 0-.724-.097-1.13-.29-.405-.193-.84-.83-1.303-1.912-.695-1.622-.763-3.524-.203-5.706.56-2.182 1.863-3.95 3.91-5.3 1.12-.735 2.086-1.275 2.897-1.623.811-.348 1.564-.521 2.26-.521.579 0 1.177.106 1.795.318.618.213 1.352.55 2.202 1.014 1.004.502 1.892.82 2.665.956.772.135 1.448.203 2.027.203h.667c.212 0 .415-.02.608-.058h.927c.309 0 .608.029.898.087.29.058.589.183.898.376.58.425 1.043 1.033 1.39 1.825.348.792.676 1.632.985 2.52a28.39 28.39 0 0 0 1.767 4.142c.714 1.371 1.94 2.347 3.679 2.926l.869.29c.347.115.656.231.927.347-.232.27-.541.57-.927.898-.387.329-.773.686-1.159 1.072-.27.193-.55.425-.84.695-.29.27-.589.54-.898.811-.927.85-1.42 1.748-1.477 2.694-.058.946-.048 1.864.029 2.752zM3.07 29.43a19.702 19.702 0 0 0 1.043.232c.81.154 1.438.309 1.883.463.444.154.743.27.898.348a8.803 8.803 0 0 1-.695 1.1 18.964 18.964 0 0 0-1.043 1.71 2.584 2.584 0 0 0-.232 1.998c.116.502.135 1.033.058 1.593a8.247 8.247 0 0 1-.406 1.651 31.38 31.38 0 0 1-1.1-4.316 25.373 25.373 0 0 1-.406-4.548v-.231zm26.707 26.938c-2.55 0-4.982-.347-7.3-1.042a25.353 25.353 0 0 1-6.575-2.868 27.661 27.661 0 0 1-5.475-4.432 26.247 26.247 0 0 1-4.17-5.735c.386-.734.82-1.835 1.303-3.302.483-1.468.57-2.916.26-4.345 0-.155.097-.377.29-.666.193-.29.367-.532.522-.725a17.78 17.78 0 0 0 1.1-1.911c.348-.696.329-1.41-.058-2.144-.231-.54-.714-.994-1.448-1.361s-1.796-.705-3.186-1.014a15.92 15.92 0 0 0-.927-.203 41.57 41.57 0 0 0-.811-.145c.386-3.321 1.332-6.411 2.838-9.269 1.545-2.858 3.496-5.34 5.852-7.444 2.355-2.105 5.06-3.776 8.11-5.012 3.051-1.197 6.276-1.795 9.675-1.795 2.356 0 4.615.29 6.778.869 2.163.579 4.21 1.41 6.14 2.49-.462-.231-.907-.366-1.331-.405a12.896 12.896 0 0 0-1.16-.058h-1.1a2.809 2.809 0 0 1-.55.058h-.55c-.425 0-.908-.048-1.449-.145-.54-.096-1.159-.338-1.854-.724-1.081-.54-2.047-.946-2.896-1.216a8.19 8.19 0 0 0-2.491-.406c-1.005 0-2.038.203-3.1.608-1.062.406-2.288 1.072-3.679 1.999a11.736 11.736 0 0 0-3.099 2.926 13.802 13.802 0 0 0-1.999 3.852c-.425 1.39-.608 2.762-.55 4.113.058 1.352.338 2.607.84 3.766.618 1.39 1.332 2.404 2.143 3.041.811.638 1.816.956 3.013.956.309 0 .608-.01.898-.029.29-.019.57-.048.84-.086.309-.04.628-.078.956-.116.328-.039.647-.058.956-.058.386 0 .762.029 1.13.087.366.058.724.144 1.071.26.657.232 1.226.715 1.71 1.449.482.733.897 1.738 1.245 3.012.347 1.275.598 2.684.753 4.23.154 1.544.29 3.05.405 4.518.116 1.197.222 2.346.319 3.447.097 1.1.241 2.076.434 2.925.116.503.261.956.435 1.362.174.406.357.743.55 1.014.27.463.618.81 1.043 1.042.425.232.87.348 1.333.348 1.313 0 2.49-.212 3.534-.637a7.429 7.429 0 0 0 2.722-1.912 9.13 9.13 0 0 0 1.478-2.23c.367-.792.666-1.535.898-2.23l.463-1.16c.155-.386.309-.656.464-.81 1.699-1.893 2.616-3.612 2.751-5.156.136-1.545.145-2.897.03-4.056-.078-.85-.097-1.467-.059-1.854.039-.386.232-.733.58-1.042.309-.27.598-.531.869-.782.27-.252.54-.493.81-.725.541-.502 1.005-.926 1.391-1.274.386-.348.715-.676.985-.985.193-.193.444-.521.753-.985.31-.463.406-.985.29-1.564v-.058a28.395 28.395 0 0 1 1.158 4.403 26.18 26.18 0 0 1 .406 4.634c0 3.67-.695 7.126-2.086 10.37-1.429 3.245-3.35 6.074-5.764 8.488-2.414 2.413-5.243 4.335-8.487 5.764-3.244 1.39-6.701 2.085-10.37 2.085z" fill="#FFAC01"/></svg>