<svg width="61" height="60" fill="none" xmlns="http://www.w3.org/2000/svg"><path d="M59.045 56.832H2.155c-.309 0-.589.126-.84.377-.251.25-.377.55-.377.897 0 .31.126.59.377.84.251.252.531.377.84.377h56.89c.348 0 .637-.125.869-.377a1.226 1.226 0 0 0-.029-1.738c-.251-.25-.531-.376-.84-.376zm-46.983-14.83H4.646c-.347 0-.637.125-.869.376-.232.25-.347.55-.347.898v14.83c0 .31.115.59.347.84.232.252.522.377.87.377h7.415c.347 0 .637-.125.869-.377.231-.25.347-.53.347-.84v-14.83c0-.348-.116-.647-.348-.898a1.133 1.133 0 0 0-.868-.377zm-1.217 14.83H5.863v-12.34h4.982v12.34zm16.047-27.17h-7.415a1.18 1.18 0 0 0-.87.347 1.18 1.18 0 0 0-.347.87v27.227c0 .31.116.59.348.84.232.252.521.377.869.377h7.415c.348 0 .638-.125.87-.377a1.21 1.21 0 0 0 .347-.84V30.878a1.18 1.18 0 0 0-.348-.869 1.18 1.18 0 0 0-.869-.348zm-1.216 27.17h-4.982V32.095h4.982v24.737zm16.047-22.246h-7.415c-.348 0-.638.125-.87.376-.231.251-.347.55-.347.898v22.246c0 .31.116.59.348.84.231.252.521.377.869.377h7.415c.348 0 .637-.125.87-.377a1.21 1.21 0 0 0 .347-.84V35.86c0-.347-.116-.647-.348-.898a1.133 1.133 0 0 0-.869-.376zm-1.216 22.246h-4.983V37.077h4.983v19.755zm16.047-37.077h-7.416c-.347 0-.637.126-.868.377-.232.25-.348.55-.348.898v37.076c0 .31.116.59.348.84.231.252.52.377.868.377h7.416c.347 0 .637-.125.869-.377a1.21 1.21 0 0 0 .347-.84V21.03c0-.348-.115-.647-.347-.898a1.134 1.134 0 0 0-.87-.377zm-1.217 37.077h-4.982V22.246h4.982v34.586zM8.354 22.246c-1.352 0-2.51.483-3.476 1.449-.966.965-1.448 2.124-1.448 3.475 0 1.39.482 2.569 1.448 3.534.965.966 2.124 1.449 3.476 1.449 1.352 0 2.51-.483 3.476-1.449.965-.965 1.448-2.143 1.448-3.534 0-1.351-.483-2.51-1.448-3.476-.966-.965-2.124-1.448-3.476-1.448zm0 7.416a2.404 2.404 0 0 1-1.767-.725 2.404 2.404 0 0 1-.724-1.767c0-.695.241-1.274.724-1.738.483-.463 1.072-.695 1.767-.695.695 0 1.284.242 1.767.724.483.483.724 1.053.724 1.71 0 .695-.241 1.284-.724 1.766a2.404 2.404 0 0 1-1.767.724zm14.83-19.813c-1.351 0-2.51.482-3.475 1.448-.966.965-1.449 2.143-1.449 3.534 0 1.352.483 2.51 1.449 3.476.965.965 2.124 1.448 3.476 1.448 1.351 0 2.51-.483 3.476-1.448.965-.966 1.448-2.124 1.448-3.476 0-1.352-.483-2.52-1.448-3.505-.966-.985-2.125-1.477-3.476-1.477zm0 7.415a2.404 2.404 0 0 1-1.766-.724c-.483-.483-.724-1.053-.724-1.71 0-.694.24-1.283.724-1.766a2.404 2.404 0 0 1 1.767-.724c.695 0 1.284.241 1.767.724.482.483.724 1.072.724 1.767 0 .656-.242 1.226-.724 1.709a2.404 2.404 0 0 1-1.767.724zm14.831-2.433c-1.351 0-2.51.482-3.476 1.448-.965.966-1.448 2.124-1.448 3.476 0 1.39.483 2.568 1.448 3.534.966.965 2.125 1.448 3.476 1.448 1.352 0 2.51-.482 3.476-1.448.966-.966 1.449-2.144 1.449-3.534 0-1.352-.483-2.51-1.449-3.476-.965-.966-2.124-1.448-3.476-1.448zm0 7.415a2.404 2.404 0 0 1-1.767-.724 2.404 2.404 0 0 1-.724-1.767c0-.656.242-1.226.724-1.709a2.404 2.404 0 0 1 1.767-.724c.696 0 1.285.241 1.767.724.483.483.725 1.053.725 1.709 0 .695-.242 1.284-.725 1.767a2.404 2.404 0 0 1-1.767.724zM52.846 0c-1.352 0-2.51.483-3.476 1.448-.965.966-1.448 2.125-1.448 3.476 0 1.39.483 2.569 1.448 3.534.966.966 2.124 1.448 3.476 1.448 1.352 0 2.51-.482 3.476-1.448.966-.965 1.448-2.143 1.448-3.534 0-1.351-.482-2.51-1.448-3.476C55.357.483 54.198 0 52.846 0zm0 7.415a2.404 2.404 0 0 1-1.767-.724 2.404 2.404 0 0 1-.724-1.767c0-.656.242-1.226.724-1.709a2.404 2.404 0 0 1 1.767-.724c.695 0 1.284.241 1.767.724.483.483.724 1.053.724 1.71 0 .694-.241 1.283-.724 1.766a2.404 2.404 0 0 1-1.767.724zm-1.738-.753a1.179 1.179 0 0 0-.869-.347c-.347 0-.637.116-.869.347l-9.617 9.617a1.179 1.179 0 0 0-.347.87 1.179 1.179 0 0 0 .753 1.129c.154.058.309.087.463.087.155 0 .31-.03.464-.087.154-.058.29-.145.405-.26L51.108 8.4a1.18 1.18 0 0 0 .348-.869 1.18 1.18 0 0 0-.348-.869zM35.003 16.916l-7.937-2.259c-.309-.116-.618-.087-.927.087-.309.174-.502.415-.58.724-.076.348-.038.666.117.956.154.29.405.492.753.608l7.937 2.26c.038 0 .087.01.145.028.057.02.106.03.144.03.27 0 .522-.087.753-.261a1.24 1.24 0 0 0 .464-.666c.116-.31.087-.618-.087-.927a1.145 1.145 0 0 0-.782-.58zm-13.73-.579a1.539 1.539 0 0 0-.84-.434c-.328-.058-.628.028-.898.26l-9.327 7.416c-.27.231-.425.511-.464.84-.038.328.058.627.29.898.116.154.26.27.434.347.174.077.338.116.493.116.154 0 .3-.02.434-.058a.72.72 0 0 0 .319-.174l9.327-7.473c.27-.193.425-.463.464-.811a1.295 1.295 0 0 0-.232-.927z" fill="#FFAC01"/></svg>