<svg width="61" height="60" fill="none" xmlns="http://www.w3.org/2000/svg"><path d="M7.379 19.234H2.155c-.387 0-.716.144-.987.434-.271.29-.406.628-.406 1.014s.135.724.406 1.014c.27.29.6.434.987.434h5.224a1.3 1.3 0 0 0 .987-.434c.27-.29.406-.628.406-1.014s-.136-.724-.406-1.014c-.271-.29-.6-.434-.987-.434zm51.313 0h-5.225c-.387 0-.715.144-.986.434-.271.29-.407.628-.407 1.014s.136.724.407 1.014c.27.29.6.434.986.434h5.224a1.3 1.3 0 0 0 .987-.434c.271-.29.407-.628.407-1.014s-.136-.724-.407-1.014c-.27-.29-.6-.434-.986-.434zM13.3 37.772a1.547 1.547 0 0 0-1.045-.405c-.387 0-.716.135-.987.405l-3.773 3.766c-.271.27-.406.608-.406 1.014 0 .405.135.743.406 1.013a.88.88 0 0 0 .464.319c.194.058.368.087.523.087.193 0 .377-.03.551-.087a1.27 1.27 0 0 0 .494-.319L13.3 39.8c.27-.27.406-.608.406-1.014s-.136-.744-.406-1.014zM50.74.406A1.38 1.38 0 0 0 49.722 0a1.38 1.38 0 0 0-1.015.406l-3.657 3.65a1.29 1.29 0 0 0-.465 1.013c0 .406.155.744.465 1.014.116.154.26.26.435.319.174.057.358.086.552.086.193 0 .377-.029.55-.086a1.27 1.27 0 0 0 .494-.32l3.657-3.649c.271-.27.407-.608.407-1.014 0-.405-.136-.743-.407-1.013zm-34.944 3.65L12.139.405A1.38 1.38 0 0 0 11.123 0a1.38 1.38 0 0 0-1.016.406c-.27.27-.406.608-.406 1.013 0 .406.135.744.406 1.014l3.657 3.65c.155.154.32.26.493.319.174.057.358.086.552.086.155 0 .329-.029.522-.086a.88.88 0 0 0 .465-.32c.27-.27.406-.607.406-1.013 0-.405-.136-.743-.407-1.014zM53.35 41.537l-3.715-3.766a1.548 1.548 0 0 0-1.044-.405c-.387 0-.716.135-.987.405-.31.31-.465.657-.465 1.043 0 .386.155.714.465.985l3.715 3.765c.154.155.319.261.493.319.174.058.358.087.551.087.155 0 .33-.03.523-.087a.88.88 0 0 0 .464-.319c.271-.27.407-.608.407-1.013 0-.406-.136-.744-.407-1.014zM30.423 3.88c-2.476 0-4.818.503-7.023 1.507a18.18 18.18 0 0 0-5.718 3.997c-1.645 1.7-2.931 3.708-3.86 6.025-.967 2.279-1.451 4.712-1.451 7.3 0 2.394.416 4.837 1.248 7.328a26.234 26.234 0 0 0 3.512 6.923c1.16 1.622 2.04 3.322 2.64 5.098.6 1.777.9 3.573.9 5.388v8.98c0 .81.28 1.496.842 2.056.561.56 1.248.84 2.06.84h13.7c.812 0 1.5-.28 2.06-.84.561-.56.842-1.245.842-2.057v-8.98c0-1.814.3-3.61.9-5.387.6-1.776 1.48-3.476 2.64-5.098a26.233 26.233 0 0 0 3.512-6.923c.832-2.491 1.248-4.934 1.248-7.328 0-2.588-.483-5.021-1.45-7.3-.93-2.317-2.216-4.326-3.86-6.025a18.18 18.18 0 0 0-5.718-3.997 16.754 16.754 0 0 0-7.024-1.507zm6.85 52.545h-13.7v-1.853h6.85c.387 0 .726-.145 1.016-.435.29-.29.435-.627.435-1.014 0-.386-.145-.724-.435-1.014a1.393 1.393 0 0 0-1.016-.434h-6.85v-1.854h13.7v6.604zM28.39 29.661l-1.915-4.113h7.894l-1.915 4.114a1.036 1.036 0 0 0-.087.26 1.03 1.03 0 0 1-.087.26l-1.103 16.744h-1.51l-1.102-16.743a1.03 1.03 0 0 1-.087-.26 1.036 1.036 0 0 0-.087-.261zm12.945 5.62c-1.277 1.815-2.254 3.708-2.932 5.677a20.723 20.723 0 0 0-1.132 5.968H34.08l1.103-16.28 2.728-5.909c.116-.231.164-.463.145-.695a1.9 1.9 0 0 0-.203-.695 1.812 1.812 0 0 0-.551-.464 1.377 1.377 0 0 0-.668-.173H24.212c-.232 0-.454.057-.667.173-.213.116-.397.27-.552.464a1.9 1.9 0 0 0-.203.695c-.02.232.03.463.145.695l2.728 5.91 1.103 16.279h-3.192a20.723 20.723 0 0 0-1.132-5.968c-.677-1.97-1.654-3.862-2.932-5.677a22.024 22.024 0 0 1-3.134-6.112c-.735-2.22-1.103-4.374-1.103-6.46 0-2.2.387-4.267 1.161-6.198.813-1.931 1.906-3.621 3.28-5.07a15.7 15.7 0 0 1 4.788-3.446c1.858-.811 3.831-1.217 5.921-1.217 2.09 0 4.063.406 5.92 1.217a15.7 15.7 0 0 1 4.79 3.447c1.373 1.448 2.467 3.138 3.28 5.069.773 1.93 1.16 3.997 1.16 6.199 0 2.085-.367 4.238-1.103 6.46a22.027 22.027 0 0 1-3.134 6.111z" fill="#FFAC01"/></svg>