<svg xmlns="http://www.w3.org/2000/svg" width="51" height="51" fill="none"><g clip-path="url(#a)"><path fill="#FF4B55" d="M49.748 41.833H1.471a.86.86 0 0 1-.862-.862V9.936c0-.476.386-.862.862-.862h48.276c.476 0 .862.386.862.862v31.035a.86.86 0 0 1-.862.862"/><path fill="#FFE15A" d="M34.728 28.024s-1.717-.286-2.99-1.34c-.375-.312-.92-.55-1.45-.726a5.5 5.5 0 0 1 1.306.08c1.771.358 3.488-.502 3.488-.502s-1.732.175-3.237-.509c-.407-.185-.934-.272-1.45-.309.371-.106.764-.19 1.152-.211 1.804-.1 3.249-1.365 3.249-1.365s-1.632.606-3.26.324c-.475-.083-1.057-.021-1.599.088a5.4 5.4 0 0 1 1.156-.568c1.715-.567 2.78-2.165 2.78-2.165s-1.418 1.01-3.063 1.163c-.49.045-1.046.265-1.548.518.29-.318.62-.633.987-.875 1.505-1 2.111-2.821 2.111-2.821s-1.1 1.348-2.648 1.929c-.422.158-.86.475-1.252.816a5.3 5.3 0 0 1 .67-.976c1.204-1.346 1.33-3.262 1.33-3.262s-.725 1.583-2.075 2.535c-.394.278-.762.734-1.068 1.195.094-.411.223-.837.416-1.221.81-1.615.432-3.497.432-3.497s-.287 1.717-1.342 2.99c-.31.375-.549.92-.724 1.45a5.5 5.5 0 0 1 .079-1.306c.358-1.77-.502-3.488-.502-3.488s.175 1.733-.509 3.237c-.185.407-.272.935-.309 1.45a5.3 5.3 0 0 1-.21-1.152c-.1-1.804-1.366-3.248-1.366-3.248s.606 1.632.324 3.26c-.083.474-.02 1.056.088 1.598a5.4 5.4 0 0 1-.568-1.156c-.567-1.715-2.165-2.78-2.165-2.78s1.011 1.418 1.163 3.064c.046.489.265 1.045.518 1.547a5.5 5.5 0 0 1-.875-.986c-1-1.506-2.821-2.112-2.821-2.112s1.348 1.101 1.929 2.649c.158.422.475.86.816 1.252a5.3 5.3 0 0 1-.976-.67c-1.346-1.205-3.262-1.33-3.262-1.33s1.583.724 2.535 2.075c.278.393.734.761 1.194 1.067a5.4 5.4 0 0 1-1.22-.415c-1.615-.81-3.497-.432-3.497-.432s1.717.286 2.99 1.341c.375.311.92.55 1.45.725a5.5 5.5 0 0 1-1.306-.08c-1.77-.357-3.488.502-3.488.502s1.733-.175 3.237.51c.407.184.935.271 1.45.308a5.3 5.3 0 0 1-1.152.212c-1.804.1-3.248 1.364-3.248 1.364s1.632-.606 3.26-.323c.474.082 1.056.02 1.598-.088a5.4 5.4 0 0 1-1.156.567c-1.715.568-2.78 2.166-2.78 2.166s1.418-1.011 3.064-1.164c.489-.045 1.045-.264 1.547-.517-.29.318-.62.632-.986.875-1.506.999-2.112 2.82-2.112 2.82s1.101-1.348 2.649-1.928c.422-.158.859-.475 1.252-.816a5.3 5.3 0 0 1-.67.975c-1.205 1.347-1.33 3.263-1.33 3.263s.724-1.583 2.075-2.536c.393-.277.761-.733 1.067-1.194-.093.41-.222.837-.415 1.22-.81 1.615-.432 3.498-.432 3.498s.286-1.718 1.341-2.99c.311-.375.55-.92.725-1.45.019.426.007.878-.08 1.306-.357 1.77.502 3.487.502 3.487s-.175-1.732.51-3.236c.184-.407.271-.935.308-1.45.107.37.19.763.212 1.151.1 1.804 1.364 3.249 1.364 3.249s-.606-1.632-.323-3.26c.082-.475.02-1.057-.088-1.599.223.357.433.75.567 1.156.568 1.715 2.166 2.78 2.166 2.78s-1.011-1.418-1.164-3.063c-.045-.489-.264-1.046-.517-1.548.317.29.632.62.875.987.999 1.505 2.82 2.111 2.82 2.111s-1.348-1.1-1.928-2.648c-.158-.422-.475-.86-.816-1.252.34.188.682.408.975.67 1.347 1.204 3.263 1.33 3.263 1.33s-1.583-.724-2.536-2.075c-.277-.394-.733-.762-1.194-1.068.41.094.837.223 1.22.416 1.615.81 3.497.431 3.497.431m-9.12 1.807a4.377 4.377 0 1 1 0-8.754 4.377 4.377 0 0 1 0 8.754"/><path fill="#FFE15A" d="M24.22 23.683q.14-.111.281-.211a6 6 0 0 0-1.57-.479q-.091.104-.175.213c.384.075.9.218 1.465.477M23.12 22.8c.42.048 1.03.173 1.706.464.113-.068.226-.127.338-.185a6.2 6.2 0 0 0-1.841-.446c-.069.055-.14.107-.203.167M25.31 24.829a6 6 0 0 0-.264-.234c-.82.78-1.537 1.917-1.86 3.567.118.106.234.212.365.302.238-1.679.935-2.837 1.76-3.635M24.993 24.104c.093-.075.186-.15.28-.216a6 6 0 0 0-.343-.2c-.097.066-.195.131-.291.206q.176.097.354.21M27.257 23.893c.703.617 1.345 1.486 1.802 2.69.117-.357.197-.732.197-1.13a3.63 3.63 0 0 0-.62-2.034 5.7 5.7 0 0 0-1.379.474M25.337 24.339q.137.104.271.22c.09-.076.18-.152.272-.22a6 6 0 0 0-.271-.217 6 6 0 0 0-.272.217M25.609 23.283a6 6 0 0 0-.345.191q.173.09.345.196.173-.105.344-.196a6 6 0 0 0-.344-.192M22.789 27.741c.386-1.576 1.113-2.655 1.927-3.398a5 5 0 0 0-.34-.222c-.784.689-1.493 1.684-1.93 3.118q.151.267.343.502M23.96 23.893a5.7 5.7 0 0 0-1.379-.474 3.63 3.63 0 0 0-.62 2.035c0 .397.08.772.197 1.13.456-1.205 1.099-2.074 1.801-2.691M25.609 22.873a6.3 6.3 0 0 1 2-.464 3.63 3.63 0 0 0-4.001 0 6.3 6.3 0 0 1 2 .464M25.608 25.138c-.727.806-1.328 1.963-1.522 3.62.464.215.977.343 1.522.343.546 0 1.058-.128 1.523-.342-.195-1.658-.795-2.815-1.523-3.622M26.842 24.121a6 6 0 0 0-.34.222c.813.743 1.54 1.822 1.926 3.398q.192-.235.343-.502c-.437-1.434-1.146-2.43-1.929-3.118M28.03 28.162c-.323-1.65-1.04-2.787-1.86-3.567q-.133.111-.264.234c.825.798 1.522 1.956 1.76 3.635.13-.09.247-.196.365-.302M26.053 23.079q.168.084.338.185a6.1 6.1 0 0 1 1.706-.464c-.064-.06-.134-.112-.203-.167a6.2 6.2 0 0 0-1.841.446M26.224 24.104q.177-.113.354-.21c-.096-.075-.194-.14-.291-.206a6 6 0 0 0-.343.2c.094.066.187.141.28.216M26.996 23.683a6.5 6.5 0 0 1 1.465-.477q-.084-.11-.176-.212c-.392.06-.95.196-1.57.478.095.064.188.138.281.21"/></g><defs><clipPath id="a"><path fill="#fff" d="M.61.453h50v50h-50z"/></clipPath></defs></svg>